# xmcd
#
# Track frame offsets:
#	150
#	18924
#	39184
#	61419
#	73106
#	86944
#	108914
#	126996
#	148843
#
# Disc length: 2291 seconds
#
# Revision: 0
# Processed by: cddbd v1.5.2PL0 Copyright (c) Steve Scherf et al.
# Submitted via: EasyCDDAExtractor 16.0.6.1
#
DISCID=7e08f109
DTITLE=박광수 - 마른잎 - 빗속의 연인
DYEAR=1973
DGENRE=Pop
TTITLE0=마른잎
TTITLE1=이제 그만 떠나주오
TTITLE2=그 어디에
TTITLE3=벌레소리
TTITLE4=바닷가
TTITLE5=빗속의 여인
TTITLE6=왜
TTITLE7=나무잎이 떨여저서
TTITLE8=잔디
EXTD=
EXTT0=
EXTT1=
EXTT2=
EXTT3=
EXTT4=
EXTT5=
EXTT6=
EXTT7=
EXTT8=
PLAYORDER=
